<?xml version="1.0" encoding="utf-8"?>
<!-- Generator: Adobe Illustrator 26.3.1, SVG Export Plug-In . SVG Version: 6.00 Build 0)  -->
<svg version="1.1" id="Layer_1" xmlns="http://www.w3.org/2000/svg" xmlns:xlink="http://www.w3.org/1999/xlink" x="0px" y="0px"
	 viewBox="0 0 58.9 51.7" style="enable-background:new 0 0 58.9 51.7;" xml:space="preserve">
<style type="text/css">
	.st0{fill:#0076B6;}
</style>
<g id="Layer_1_00000132058267998814823440000012385857121084921235_">
	<g id="Layer_1_00000182496462221868542610000001389338699256916393_">
		<g transform="translate(0.000000,288.000000) scale(0.100000,-0.100000)">
			<path class="st0" d="M239.9,2874.6c-16.6-24.4-35.5-57.7-32.8-58.7c4.6-1.5,10.3-7.8,10.3-11.5c0-5.1-3.9-6.4-7.3-2.4
				c-1.7,2-4.4,3.7-6.1,3.7c-4.4,0-15.9-15.9-15.9-22.2c0-4.2-0.7-4.6-3.4-2.4c-2.7,2.2-4.2,0.5-8.3-8.8c-2.7-6.6-5.6-16.4-6.6-22
				c-1.5-8.8-1-10.5,2.2-10.5c4.9,0,4.9,0.2,0.2-11c-3.2-7.3-4.4-8.6-7.3-6.1c-2,1.7-3.7,5.6-3.7,8.8c0,6.8-2.7,7.6-7.8,1.7
				c-2-2.4-30.3-43.5-62.8-91.2s-66.3-96.8-74.8-109L0,2510.6l5.9-8.8l6.1-8.8l-4.9-12.5c-5.9-14.7-6.1-20.3-1.5-24.2
				c2.9-2.4,4.2-0.7,7.3,9c5.1,15.2,10.3,22.5,16.4,22.5s5.9-2.7-2-16.9l-6.8-12l5.9-6.4c3.9-4.2,6.8-5.6,8.3-4.2
				c1.7,1.7,4.6,0.7,8.6-2.2c8.1-6.4,14.7-6.1,17.6,0.7c1.2,2.9,6.1,9.3,11,13.9c4.9,4.6,11.7,13.4,15.2,19.6
				c3.4,6.1,10.3,15.9,15.4,22c9.8,12,31.8,48.4,31.8,52.8c0,1.5,2.2,5.6,5.1,9c8.3,10.8,32,16.6,73.1,18.1
				c34,1.2,40.3,2.9,38.4,9.3c-0.5,1.2-6.4,2.4-13.2,2.7c-6.8,0-16.6,2.2-21.5,4.4c-6.8,3.4-13.4,4.2-27.1,3.4
				c-16.1-0.7-18.1-0.2-18.1,3.4c0,3.9,2.7,4.4,26.4,4.4c14.4,0,40.3,0.7,57.7,1.7l31.5,1.5l-1.7-5.9c-0.7-3.2-2.2-11-3.2-17.6
				c-1.5-11-1.7-11.5-5.9-7.6c-4.2,3.9-4.6,3.7-7.1-2.4c-3.7-9.8-3.2-14.4,1.5-12.7c2.9,1.2,3.7,0.5,2.2-2.7
				c-3.9-9.5-5.9-18.6-4.6-20.8c2.2-3.7,5.9,0.5,5.9,6.8c0,4.2,1.2,5.9,4.9,5.9c6.1,0,6.8-10,1-15.9c-3.4-3.2-3.4-4.4-0.5-7.8
				c3.2-3.9,3.9-41.1,1-44.3c-0.7-0.7-3.7,0.7-6.4,3.2c-2.7,2.4-5.4,3.9-5.9,3.4c-0.5-0.5-1.2-13.7-1.7-29.1
				c-1-28.6,1.7-38.6,5.9-21.3c2.2,9.3,6.6,12.5,6.6,4.9c0.2-11,7.3-84.6,8.3-85.8c2.4-2.2,9.3,2.2,10.5,6.8
				c1.5,5.9,3.9,6.1,8.1,1.2c5.4-6.6,8.1-4.2,6.4,6.1c-1.2,7.8-0.7,9.8,2.2,9.8c2,0,4.4-3.4,5.6-7.8c1-4.4,3.9-8.3,6.1-8.8
				c3.7-0.7,4.2,2.9,4.2,37.2c0,21,1,38.1,2,38.1s3.2-1.2,4.6-2.7c2.7-2.7,7.1,18.6,13.2,63.8c1.7,12.7,3.9,24,5.1,24.7
				c1.2,0.7,3.4,10.3,4.9,20.8c1.5,10.5,4.2,22.2,5.9,26.2c3.4,6.6,3.9,6.6,27.4,6.6c13,0,37.7,0.7,55,1.7l31.1,1.5v-49.9
				c0.2-64.5,2.9-94.1,9.5-100.7c7.6-7.8,13.2-3.9,11.2,8.1c-2,12,2.4,13.4,4.9,1.7c2.9-13.4,7.8-18.8,16.9-18.8
				c4.4,0,9.3,1.5,10.8,3.2c1.2,1.5,3.2,13,4.2,25.2c1.7,22.2,4.6,32.8,7.1,25.4c2.7-8.6,6.6-32.3,6.1-37.4c-1-7.1,2-11.7,6.4-9.8
				c3.2,1,3.7,12.2,3.7,74.1c0,40.1,0.7,74.6,1.5,76.8c0.7,2.2,2.9,3.9,4.6,3.9c6.1,0,6.6,4.9,1.5,12c-7.6,10.8-6.6,16.6,2.9,18.6
				c11.7,2.4,18.8,7.8,18.8,14.4s-7.1,13.7-13.7,13.7c-2.4,0-7.1,2.7-10,5.6c-4.9,5.1-5.1,8.1-5.4,45.7
				c-0.2,68.5-3.4,151.6-5.4,153.1c-4.6,2.7-12-4.2-12-11.2c0-15.2-10.8-7.1-20.5,15.4c-3.4,7.6-6.8,13.9-7.6,13.9
				c-0.5,0-5.1-2-9.8-4.2c-7.6-3.7-8.8-5.1-7.8-10.5c0.7-3.4,2.7-36.9,4.4-74.6c2-48.4,2.2-70.9,0.2-77c-2.4-8.3-2.4-8.1-2.9,6.1
				c-0.2,8.1-0.7,16.4-1,18.3c-0.5,2-1.5,24.7-2.4,50.1c-0.7,25.7-2.2,55.5-3.2,66.7l-1.5,20h-6.8c-7.6,0-9-3.4-3.7-9.5
				c1.7-2.2,4.2-8.1,4.9-13.2c1.7-8.8,1.5-9.3-3.2-7.8c-2.9,0.7-5.1,0.5-5.1-0.5c0-7.8,5.9-31.5,8.1-33c2-1.2,1.5-2.2-1.5-3.4
				c-5.6-2.2-5.4-6.8,0.5-5.1c3.2,0.7,5.1-0.2,5.9-3.7c1-3.4,0-5.4-3.4-6.1c-5.1-1.5-5.9-4.9-2.4-10.3c1.7-2.4,1.2-4.4-1.2-6.1
				c-2.9-2.4-2.7-5.1,2.4-20.3c5.4-16.1,5.6-18.1,2-20c-2.9-1.7-3.2-3.2-1.5-5.6c2.9-3.7,2.7-10.8-1.2-33.7
				c-1.5-8.8-2.7-20-2.7-24.9c0-5.1-0.7-9.3-1.7-9.5c-21.8-2.2-99.5-4.6-105.4-2.9c-11.2,2.9-4.4,4.4,16.6,3.7c21-1,22-0.7,22,4.2
				c0,4.9,1.2,5.1,26.9,5.1c22.5,0,26.9,0.5,26.9,3.7c0,3.4-5.9,3.7-49.6,2.2c-48.7-1.7-49.9-1.5-51.1,3.2c-0.7,2.7-1.5,35.7-2,73.1
				c-0.2,37.7-0.7,70.9-1.2,74.3c-0.2,3.4-0.7,11.7-1,18.3l-0.2,12.5l-11.5,2.9c-7.3,2-14.2,6.4-19.8,12c-7.1,7.6-10.3,9-20.8,10
				c-11.5,1-29.8-1.5-45.5-5.9c-4.9-1.5-5.6-1-4.4,2.2c1,2.4,1.2,4.2,1,4.2s-4.2,1-8.3,2.2C245.2,2881,243.8,2880.5,239.9,2874.6z
				 M276.3,2758.7c0-3.2,0.5-10,1-15.4c5.4-54.3,3.2-67-12.2-73.6c-12.2-5.1-52.6-4.2-52.6,1.5c0,1.7,52.1,84.1,56.7,90
				C273.1,2765.8,276,2764.6,276.3,2758.7z M224.7,2742.1c0-3.9-24.4-44-26.9-44c-1.5,0-2.4,4.4-2.4,9.8c0,9.8,1.7,12,6.4,7.3
				c1.5-1.5,5.4,3.4,10.8,13.4C220.3,2743.3,224.7,2748,224.7,2742.1z M157.2,2704c-3.9-5.6-8.3-7.8-8.3-3.9c0,1,1.7,4.4,3.9,7.3
				C157.9,2714.7,162.1,2711.6,157.2,2704z M144,2686.4c-0.2-3.2-12.5-15.6-13.9-14.2c-1.7,1.7,3.9,13.9,7.8,16.6
				C140.3,2690.5,144,2689.1,144,2686.4z M185.6,2680c0-6.4-7.8-16.1-9.3-11.7c-0.7,2.7,6.1,17.6,8.1,17.6
				C185.1,2685.9,185.6,2683.2,185.6,2680z M271.4,2653.6c-4.2-4.4-47.9-4.2-52.1,0c-2.2,2.2,2.9,2.9,26.2,2.9
				S273.8,2656.1,271.4,2653.6z M502,2570.5c0.7-4.2,1-8.3,0.2-9c-2.2-2-6.1,5.1-6.1,11.5C496.1,2581,500.2,2579.5,502,2570.5z
				 M546,2524.3c2.2-11.2,1.7-34-0.7-34c-2.9,0-5.1,12.5-5.1,28.4C540.1,2533.1,543.5,2536.2,546,2524.3z M331.8,2469.5
				c-1-16.1-5.4-19.1-6.4-3.9c-1,12,0.5,17.4,4.4,17.4C331.5,2482.9,332.3,2478.1,331.8,2469.5z M288.3,2476.8
				c0-3.7-11.2-7.8-13.9-5.4c-0.7,1-0.7,3.2,0,5.4C276.3,2481.7,288.3,2481.7,288.3,2476.8z"/>
			<path class="st0" d="M263.8,2518.4c0-8.8,1-15.9,2.2-15.9s3.7,6.1,5.4,13.7c2.7,11.5,2.4,13.9-0.5,15.9
				C264.5,2536,263.8,2534.5,263.8,2518.4z"/>
		</g>
	</g>
</g>
</svg>
