<?xml version="1.0" encoding="utf-8"?>
<!-- Generator: Adobe Illustrator 26.3.1, SVG Export Plug-In . SVG Version: 6.00 Build 0)  -->
<svg version="1.1" id="Layer_1" xmlns="http://www.w3.org/2000/svg" xmlns:xlink="http://www.w3.org/1999/xlink" x="0px" y="0px"
	 viewBox="0 0 70 60" style="enable-background:new 0 0 70 60;" xml:space="preserve">
<style type="text/css">
	.st0{fill:#FFFFFF;}
</style>
<g id="Layer_1_00000073723887913703994910000007882998412815383982_">
	<g id="Layer_1_00000182496462221868542610000001389338699256916393_">
		<g transform="translate(0.000000,288.000000) scale(0.100000,-0.100000)">
			<path class="st0" d="M296.2,2855.8c-18.1-26.6-38.6-62.9-35.7-63.9c5.1-1.6,11.2-8.5,11.2-12.5c0-5.6-4.3-6.9-8-2.7
				c-1.9,2.1-4.8,4-6.7,4c-4.8,0-17.3-17.3-17.3-24.2c0-4.5-0.8-5.1-3.7-2.7s-4.5,0.5-9.1-9.6c-2.9-7.2-6.1-17.8-7.2-24
				c-1.6-9.6-1.1-11.5,2.4-11.5c5.3,0,5.3,0.3,0.3-12c-3.5-8-4.8-9.3-8-6.7c-2.1,1.9-4,6.1-4,9.6c0,7.5-2.9,8.3-8.5,1.9
				c-2.1-2.7-33-47.4-68.5-99.4s-72.2-105.5-81.5-118.8l-17.1-24.2l6.4-9.6l6.7-9.6l-5.3-13.6c-6.4-16-6.7-22.1-1.6-26.4
				c3.2-2.7,4.5-0.8,8,9.9c5.6,16.5,11.2,24.5,17.8,24.5s6.4-2.9-2.1-18.4l-7.5-13.1l6.4-6.9c4.3-4.5,7.5-6.1,9.1-4.5
				c1.9,1.9,5.1,0.8,9.3-2.4c8.8-6.9,16-6.7,19.2,0.8c1.3,3.2,6.7,10.1,12,15.2s12.8,14.7,16.5,21.3c3.7,6.7,11.2,17.3,16.8,24
				c10.7,13.1,34.6,52.7,34.6,57.5c0,1.6,2.4,6.1,5.6,9.9c9.1,11.7,34.9,18.1,79.7,19.7c37,1.3,44,3.2,41.8,10.1
				c-0.5,1.3-6.9,2.7-14.4,2.9c-7.5,0-18.1,2.4-23.4,4.8c-7.5,3.7-14.7,4.5-29.6,3.7c-17.6-0.8-19.7-0.3-19.7,3.7
				c0,4.3,2.9,4.8,28.8,4.8c15.7,0,44,0.8,62.9,1.9l34.4,1.6l-1.9-6.4c-0.8-3.5-2.4-12-3.5-19.2c-1.6-12-1.9-12.5-6.4-8.3
				s-5.1,4-7.7-2.7c-4-10.7-3.5-15.7,1.6-13.9c3.2,1.3,4,0.5,2.4-2.9c-4.3-10.4-6.4-20.2-5.1-22.6c2.4-4,6.4,0.5,6.4,7.5
				c0,4.5,1.3,6.4,5.3,6.4c6.7,0,7.5-10.9,1.1-17.3c-3.7-3.5-3.7-4.8-0.5-8.5c3.5-4.3,4.3-44.8,1.1-48.2c-0.8-0.8-4,0.8-6.9,3.5
				c-2.9,2.7-5.9,4.3-6.4,3.7c-0.5-0.5-1.3-14.9-1.9-31.7c-1.1-31.2,1.9-42.1,6.4-23.2c2.4,10.1,7.2,13.6,7.2,5.3
				c0.3-12,8-92.2,9.1-93.5c2.7-2.4,10.1,2.4,11.5,7.5c1.6,6.4,4.3,6.7,8.8,1.3c5.9-7.2,8.8-4.5,6.9,6.7c-1.3,8.5-0.8,10.7,2.4,10.7
				c2.1,0,4.8-3.7,6.1-8.5c1.1-4.8,4.3-9.1,6.7-9.6c4-0.8,4.5,3.2,4.5,40.5c0,22.9,1.1,41.6,2.1,41.6s3.5-1.3,5.1-2.9
				c2.9-2.9,7.7,20.2,14.4,69.5c1.9,13.9,4.3,26.1,5.6,26.9c1.3,0.8,3.7,11.2,5.3,22.6s4.5,24.2,6.4,28.5c3.7,7.2,4.3,7.2,29.8,7.2
				c14.1,0,41,0.8,59.9,1.9l33.8,1.6V2490c0.3-70.3,3.2-102.6,10.4-109.8c8.3-8.5,14.4-4.3,12.3,8.8c-2.1,13.1,2.7,14.7,5.3,1.9
				c3.2-14.7,8.5-20.5,18.4-20.5c4.8,0,10.1,1.6,11.7,3.5c1.3,1.6,3.5,14.1,4.5,27.4c1.9,24.2,5.1,35.7,7.7,27.7
				c2.9-9.3,7.2-35.2,6.7-40.8c-1.1-7.7,2.1-12.8,6.9-10.7c3.5,1.1,4,13.3,4,80.7c0,43.7,0.8,81.3,1.6,83.7c0.8,2.4,3.2,4.3,5.1,4.3
				c6.7,0,7.2,5.3,1.6,13.1c-8.3,11.7-7.2,18.1,3.2,20.2c12.8,2.7,20.5,8.5,20.5,15.7s-7.7,14.9-14.9,14.9c-2.7,0-7.7,2.9-10.9,6.1
				c-5.3,5.6-5.6,8.8-5.9,49.8c-0.3,74.6-3.7,165.2-5.9,166.8c-5.1,2.9-13.1-4.5-13.1-12.3c0-16.5-11.7-7.7-22.4,16.8
				c-3.7,8.3-7.5,15.2-8.3,15.2c-0.5,0-5.6-2.1-10.7-4.5c-8.3-4-9.6-5.6-8.5-11.5c0.8-3.7,2.9-40.2,4.8-81.3
				c2.1-52.7,2.4-77.3,0.3-83.9c-2.7-9.1-2.7-8.8-3.2,6.7c-0.3,8.8-0.8,17.8-1.1,20c-0.5,2.1-1.6,26.9-2.7,54.6
				c-0.8,28-2.4,60.5-3.5,72.7l-1.6,21.8h-7.5c-8.3,0-9.9-3.7-4-10.4c1.9-2.4,4.5-8.8,5.3-14.4c1.9-9.6,1.6-10.1-3.5-8.5
				c-3.2,0.8-5.6,0.5-5.6-0.5c0-8.5,6.4-34.4,8.8-36c2.1-1.3,1.6-2.4-1.6-3.7c-6.1-2.4-5.9-7.5,0.5-5.6c3.5,0.8,5.6-0.3,6.4-4
				c1.1-3.7,0-5.9-3.7-6.7c-5.6-1.6-6.4-5.3-2.7-11.2c1.9-2.7,1.3-4.8-1.3-6.7c-3.2-2.7-2.9-5.6,2.7-22.1
				c5.9-17.6,6.1-19.7,2.1-21.8c-3.2-1.9-3.5-3.5-1.6-6.1c3.2-4,2.9-11.7-1.3-36.8c-1.6-9.6-2.9-21.8-2.9-27.2
				c0-5.6-0.8-10.1-1.9-10.4c-23.7-2.4-108.4-5.1-114.8-3.2c-12.3,3.2-4.8,4.8,18.1,4c22.9-1.1,24-0.8,24,4.5
				c0,5.3,1.3,5.6,29.3,5.6c24.5,0,29.3,0.5,29.3,4c0,3.7-6.4,4-54.1,2.4c-53-1.9-54.3-1.6-55.7,3.5c-0.8,2.9-1.6,38.9-2.1,79.7
				c-0.3,41-0.8,77.3-1.3,81c-0.3,3.7-0.8,12.8-1.1,20l-0.3,13.6l-12.5,3.2c-8,2.1-15.5,6.9-21.6,13.1c-7.7,8.3-11.2,9.9-22.6,10.9
				c-12.5,1.1-32.5-1.6-49.6-6.4c-5.3-1.6-6.1-1.1-4.8,2.4c1.1,2.7,1.3,4.5,1.1,4.5s-4.5,1.1-9.1,2.4
				C302,2862.7,300.4,2862.2,296.2,2855.8z M335.9,2729.5c0-3.5,0.5-10.9,1.1-16.8c5.9-59.1,3.5-73-13.3-80.2
				c-13.3-5.6-57.3-4.5-57.3,1.6c0,1.9,56.7,91.6,61.8,98C332.4,2737.2,335.6,2735.9,335.9,2729.5z M279.7,2711.4
				c0-4.3-26.6-48-29.3-48c-1.6,0-2.7,4.8-2.7,10.7c0,10.7,1.9,13.1,6.9,8c1.6-1.6,5.9,3.7,11.7,14.7
				C274.9,2712.7,279.7,2717.8,279.7,2711.4z M206.1,2669.8c-4.3-6.1-9.1-8.5-9.1-4.3c0,1.1,1.9,4.8,4.3,8
				C206.9,2681.6,211.5,2678.1,206.1,2669.8z M191.7,2650.7c-0.3-3.5-13.6-17.1-15.2-15.5c-1.9,1.9,4.3,15.2,8.5,18.1
				C187.7,2655.2,191.7,2653.6,191.7,2650.7z M237,2643.7c0-6.9-8.5-17.6-10.1-12.8c-0.8,2.9,6.7,19.2,8.8,19.2
				C236.5,2650.1,237,2647.2,237,2643.7z M330.5,2615c-4.5-4.8-52.2-4.5-56.7,0c-2.4,2.4,3.2,3.2,28.5,3.2S333.2,2617.6,330.5,2615z
				 M581.8,2524.4c0.8-4.5,1.1-9.1,0.3-9.9c-2.4-2.1-6.7,5.6-6.7,12.5C575.4,2535.8,579.9,2534.2,581.8,2524.4z M629.7,2474
				c2.4-12.3,1.9-37-0.8-37c-3.2,0-5.6,13.6-5.6,30.9C623.3,2483.6,627.1,2487.1,629.7,2474z M396.3,2414.4
				c-1.1-17.6-5.9-20.8-6.9-4.3c-1.1,13.1,0.5,18.9,4.8,18.9C396.1,2429,396.9,2423.7,396.3,2414.4z M348.9,2422.3
				c0-4-12.3-8.5-15.2-5.9c-0.8,1.1-0.8,3.5,0,5.9C335.9,2427.7,348.9,2427.7,348.9,2422.3z"/>
			<path class="st0" d="M322.3,2467.6c0-9.6,1.1-17.3,2.4-17.3s4,6.7,5.9,14.9c2.9,12.5,2.7,15.2-0.5,17.3
				C323.1,2486.8,322.3,2485.2,322.3,2467.6z"/>
		</g>
	</g>
</g>
</svg>
